# xmcd
#
# Track frame offsets: 
#        150
#        19484
#        38881
#        53203
#        75120
#        95459
#        113563
#        130430
#        155478
#        172884
#        187261
#        205763
#        225330
#        245411
#
# Disc length: 3526 seconds
#
# Revision: 0
# Processed by: cddbd v1.5.2PL0 Copyright (c) Steve Scherf et al.
# Submitted via: ExactAudioCopy v0.95a5
#
DISCID=ad0dc40e
DTITLE=Various Artist - Eclectic Blugrass Collection Volume I
DYEAR=2006
DGENRE=Bluegrass
TTITLE0=The Scientist - Pickin' On Coldplay
TTITLE1=This Fire - Pickin' On Franz Ferdinand
TTITLE2=Bang, Bang - Pickin' On Nancy Sinatra
TTITLE3=Can't Stand It - Pickin' On Wilco
TTITLE4=Cherry Blossom Girl - Bluegrass Tribute to Air
TTITLE5=My Doorbell - Indie Translations to the White Stripes
TTITLE6=Folsom Prison Blues - Train of Love, A Tribute to Johnny Cash
TTITLE7=Planet Telex - Pickin' On Radiohead
TTITLE8=Somewhere Only We Know - Pickin' On Keane
TTITLE9=Last Nite - Bluegrass to the Strokes
TTITLE10=Free Fallin' - Pickin' On Tom Petty
TTITLE11=Boulevard of Broken Dreams - Pickin' On Green Day
TTITLE12=New Pollution - Pickin' On Beck
TTITLE13=Float On - Pickin' On Modest Mouse
EXTD=
EXTT0=
EXTT1=
EXTT2=
EXTT3=
EXTT4=
EXTT5=
EXTT6=
EXTT7=
EXTT8=
EXTT9=
EXTT10=
EXTT11=
EXTT12=
EXTT13=
PLAYORDER=
